Coordinates
version=1
nRows=19
nColumns=36
inDegrees=yes

Units are S.I. units (second, meters, Newtons, ...)
If the header above contains a line with 'inDegrees', this indicates whether rotational values are in degrees (yes) or radians (no).

endheader
time	pelvis_tilt	pelvis_list	pelvis_rotation	pelvis_tx	pelvis_ty	pelvis_tz	hip_flexion_r	hip_adduction_r	hip_rotation_r	knee_angle_r	knee_angle_r_beta	ankle_angle_r	subtalar_angle_r	mtp_angle_r	hip_flexion_l	hip_adduction_l	hip_rotation_l	knee_angle_l	knee_angle_l_beta	ankle_angle_l	subtalar_angle_l	mtp_angle_l	lumbar_extension	lumbar_bending	lumbar_rotation	arm_flex_r	arm_add_r	arm_rot_r	elbow_flex_r	pro_sup_r	arm_flex_l	arm_add_l	arm_rot_l	elbow_flex_l	pro_sup_l
      4.55000000	     25.66329609	     -0.45705077	      2.45698082	      0.07041253	      0.64573116	     -0.10850179	     43.56864197	     -4.53928490	      3.23617770	     87.90068392	      1.53415635	     14.20011196	    -23.39150151	     -7.49999987	     45.51910558	     -2.42464383	      6.65489636	     85.29904436	      1.48874917	     14.65232109	    -11.64856267	     -7.49999987	    -35.77845236	      1.98479452	     -2.58993079	     16.53928369	    -15.01374308	     33.93799269	     31.34294152	     74.55068133	      7.32092488	    -10.66817443	     19.57781481	     28.57271916	     59.32319451
      4.56666670	     26.00512366	     -0.44740635	      2.47306637	      0.06947462	      0.64649114	     -0.10777279	     42.96488064	     -4.44000461	      3.17875145	     87.61027888	      1.52908783	     14.19245983	    -23.55986105	     -7.49999987	     44.99970554	     -2.41853459	      6.75813585	     85.10952224	      1.48544139	     14.50368534	    -11.55695247	     -7.49999987	    -36.13835078	      1.95481206	     -2.59099320	     16.89345446	    -14.76554855	     34.42713249	     30.45855156	     74.57822814	      7.78549008	    -10.62227527	     19.82724105	     27.96634071	     59.23202255
      4.58333330	     25.78478128	     -0.38977955	      2.41394844	      0.07045570	      0.64585297	     -0.10877341	     43.22820606	     -4.48792743	      3.27702211	     87.71026262	      1.53083287	     14.69632323	    -23.29869018	     -7.49999987	     45.30711054	     -2.33286033	      6.73804993	     85.27499617	      1.48832945	     14.51991568	    -11.43018982	     -7.49999987	    -35.90400232	      1.84099919	     -2.52322720	     16.52894368	    -15.02689359	     34.27414010	     31.41112397	     73.87605134	      7.60020252	    -10.81839909	     19.73010761	     29.05608688	     59.24385596
      4.60000000	     26.25072158	     -0.37897659	      2.37909907	      0.06926677	      0.64764807	     -0.10805899	     42.53798177	     -4.39713385	      3.29799842	     87.47154139	      1.52666640	     14.41856499	    -23.47865709	     -7.49999987	     44.61982557	     -2.35500828	      6.78073215	     84.96699393	      1.48295380	     14.36278105	    -11.32771121	     -7.49999987	    -36.49797313	      1.84939540	     -2.54689961	     17.02448034	    -14.76869064	     34.61287025	     30.43493846	     73.84802761	      8.16253061	    -10.79748904	     20.07077021	     28.30059200	     59.23540604
      4.61666670	     26.17416298	     -0.21103341	      2.22400604	      0.06886322	      0.64834404	     -0.10908173	     42.78496796	     -4.62443207	      3.46706586	     87.56009608	      1.52821197	     14.65860642	    -22.91053120	     -7.49999987	     44.46657891	     -2.20920965	      6.61009083	     84.63129343	      1.47709472	     14.53381091	    -11.27699207	     -7.49999987	    -36.52908194	      1.75489337	     -2.68640467	     17.53182406	    -14.67325540	     35.67265677	     29.91725524	     74.35427312	      8.44192448	    -10.95228082	     21.06867177	     28.07561078	     59.20502515
      4.63333330	     26.05420237	     -0.26448945	      2.20196408	      0.07113062	      0.64592789	     -0.10684104	     42.96461566	     -4.50473452	      3.41306631	     87.71732102	      1.53095606	     14.53558443	    -23.29505876	     -7.49999987	     44.69610069	     -2.35602890	      6.68088286	     84.87124872	      1.48128273	     14.61329910	    -11.40463682	     -7.49999987	    -36.56918162	      1.74957251	     -2.73097157	     17.56039600	    -14.70082244	     35.92439633	     29.95266675	     74.48992517	      8.67183174	    -11.10138341	     21.49107387	     28.13996133	     59.12662618
      4.65000000	     25.71144640	     -0.26102412	      2.14211738	      0.06906800	      0.64615205	     -0.10878032	     43.44909801	     -4.50625330	      3.50967627	     87.78392705	      1.53211856	     14.79250737	    -23.11358007	     -7.49999987	     45.15428422	     -2.27933809	      6.63227784	     85.05251685	      1.48444646	     14.59852014	    -11.44574709	     -7.49999987	    -36.54701019	      1.74966721	     -2.76665041	     17.32388964	    -14.95240532	     35.72117086	     30.96639301	     73.84923388	      8.56905234	    -11.28715511	     21.39887265	     29.21465234	     59.14111482
      4.66666670	     25.91210345	     -0.29896796	      2.16223538	      0.07226793	      0.64656635	     -0.10756344	     43.11405396	     -4.45792731	      3.51566514	     87.85665527	      1.53338790	     14.90714881	    -22.90837964	     -7.49999987	     44.87108711	     -2.34791533	      6.80289138	     85.07155573	      1.48477875	     14.54402022	    -11.68846353	     -7.49999987	    -36.73021950	      1.78699185	     -2.87870824	     17.63814322	    -14.73677982	     36.03046047	     30.20292883	     74.15069749	      8.98798888	    -11.23820928	     21.90974298	     28.44070957	     59.07259480
      4.68333330	     25.59505438	     -0.28990221	      2.18588635	      0.07259032	      0.64576804	     -0.10698672	     43.39408011	     -4.40020372	      3.47475438	     88.04765912	      1.53672155	     15.05221317	    -22.86393453	     -7.49999987	     45.24671339	     -2.36963902	      6.80366183	     85.25163060	      1.48792165	     14.82355450	    -11.40554572	     -7.49999987	    -36.32807083	      1.74184737	     -2.87019917	     17.62543024	    -14.76648888	     36.59793667	     29.94361180	     74.52764064	      9.31513281	    -11.36411443	     22.92184602	     28.15532561	     58.91932500
      4.70000000	     25.50831872	     -0.31108304	      2.22041157	      0.07259215	      0.64582754	     -0.10679690	     43.49984357	     -4.34158121	      3.47625017	     88.15628677	      1.53861746	     15.19394932	    -22.71342605	     -7.49999987	     45.35705819	     -2.41326065	      6.85585586	     85.29011707	      1.48859336	     14.90693919	    -11.23829621	     -7.49999987	    -36.27238057	      1.69040077	     -2.87232200	     17.53198576	    -14.75598031	     36.67682345	     29.98760589	     74.43828720	      9.55861749	    -11.42019980	     23.51728518	     28.06977168	     58.74615755
      4.71666670	     25.25570592	     -0.24417964	      2.18909562	      0.07422071	      0.64511137	     -0.10730082	     43.81793428	     -4.39939194	      3.52848721	     88.37725514	      1.54247409	     15.82870306	    -22.39409592	     -7.49999987	     45.59098682	     -2.33459539	      6.82088797	     85.38647828	      1.49027518	     15.02982354	    -11.23348502	     -7.49999987	    -36.07548600	      1.57429097	     -2.89193032	     17.14816925	    -15.06456083	     36.43812672	     30.97688297	     74.01780333	      9.30843684	    -11.63604646	     23.36362880	     29.14686311	     58.75557286
      4.73333330	     25.31569911	     -0.39475216	      2.15365927	      0.07264293	      0.64598512	     -0.10629046	     43.69628267	     -4.07588443	      3.51715071	     88.20755573	      1.53951227	     15.01044641	    -23.24888714	     -7.49999987	     45.50246793	     -2.53200589	      6.93360572	     85.31073148	      1.48895315	     15.14491828	    -11.05532089	     -7.49999987	    -36.25051685	      1.62950632	     -2.95189486	     17.37908063	    -14.76563785	     36.34907549	     30.46689192	     73.57326159	      9.75183654	    -11.52800228	     23.49133035	     28.42884379	     58.68707762
      4.75000000	     25.07886976	     -0.43253393	      2.09582496	      0.07241934	      0.64443595	     -0.10571171	     44.21418728	     -3.93793932	      3.53721720	     88.43780109	      1.54353081	     15.25812702	    -22.91476382	     -7.49999987	     45.87897958	     -2.70396493	      6.83317968	     85.46831649	      1.49170353	     15.44210330	    -10.93085510	     -7.49999987	    -36.10628838	      1.55571974	     -2.85851422	     17.43089949	    -14.72199457	     36.98680860	     30.31461136	     73.60487522	      9.96963615	    -11.57567082	     24.18656805	     28.19737339	     58.56121212
      4.76666670	     25.08665914	     -0.33185111	      2.03586367	      0.07173654	      0.64633449	     -0.10633449	     44.30838017	     -3.89915862	      3.76366631	     88.31535592	      1.54139374	     14.84428070	    -22.77894198	     -7.49999987	     45.71013131	     -2.68741359	      6.63489447	     85.12364003	      1.48568779	     15.50578863	    -11.12742894	     -7.49999987	    -36.19488448	      1.43684137	     -2.99015118	     17.58003420	    -14.74579929	     37.58017183	     30.24841876	     74.20084835	     10.18428895	    -11.74983144	     25.14633899	     27.99662901	     58.16394215
      4.78333330	     25.06842243	     -0.38476022	      1.92492789	      0.07341590	      0.64432074	     -0.10593757	     44.43878251	     -3.77629902	      3.80874301	     88.53318467	      1.54519557	     14.85163808	    -22.95292579	     -7.49999987	     45.80066837	     -2.85171033	      6.59139498	     85.27453918	      1.48832148	     15.54664086	    -11.26453035	     -7.49999987	    -36.28439755	      1.43629631	     -2.93912895	     17.53152380	    -14.83301935	     37.34277650	     30.70366796	     73.90524211	     10.16114175	    -11.79114209	     24.97023026	     28.39999739	     58.07576961
      4.80000000	     25.05033802	     -0.34870294	      1.92985919	      0.07425854	      0.64503588	     -0.10722579	     44.34491253	     -3.79812497	      3.90760583	     88.53427242	      1.54521455	     14.60727126	    -23.35405954	     -7.49999987	     45.84951608	     -2.74394406	      6.58814674	     85.45094610	      1.49140036	     15.45693750	    -11.31602994	     -7.49999987	    -36.42794077	      1.40586861	     -3.03650057	     17.57560164	    -14.80640644	     37.23990599	     30.74196063	     73.61893190	     10.35911472	    -11.77749420	     24.88109060	     28.35704148	     57.99433224
      4.81666670	     25.04618145	     -0.29538709	      1.93562597	      0.07465205	      0.64341381	     -0.10570434	     44.40906897	     -3.83581302	      3.97857243	     88.80647924	      1.54996546	     15.19843493	    -23.05957974	     -7.49999987	     46.02042079	     -2.73456346	      6.66505568	     85.77874496	      1.49712153	     15.63792931	    -11.20297124	     -7.49999987	    -36.56278313	      1.34937964	     -3.07555680	     17.53287203	    -14.89178595	     37.26793336	     31.14672883	     73.45300515	     10.38867958	    -11.88140494	     24.87528779	     28.83556610	     57.99610951
      4.83333330	     24.93282779	     -0.36753419	      1.87196326	      0.07287239	      0.64350051	     -0.10564179	     44.57557429	     -3.65014965	      3.90801072	     88.73335437	      1.54868919	     14.82841516	    -23.63551901	     -7.49999987	     46.20122046	     -2.88349214	      6.61628198	     85.84016115	      1.49819344	     15.68136224	    -10.89636714	     -7.49999987	    -36.41981675	      1.35770464	     -2.97096712	     17.59141925	    -14.81045718	     37.24525529	     30.79494644	     73.54828339	     10.50615875	    -11.79574892	     24.84109418	     28.46330900	     57.89501574
      4.85000000	     24.81648718	     -0.35698214	      1.84962508	      0.07408735	      0.64529944	     -0.10638629	     44.56338745	     -3.69885108	      3.92143656	     88.60560966	      1.54645962	     15.02538383	    -23.30705222	     -7.49999987	     46.16172767	     -2.89368517	      6.50833179	     85.63183844	      1.49455753	     15.74604545	    -10.86258631	     -7.49999987	    -36.31858933	      1.35524453	     -2.95470805	     17.64009614	    -14.80275869	     37.59401835	     30.59151380	     73.53744402	     10.65144495	    -11.84827757	     25.10055131	     28.34121890	     57.80412131
